<?xml version="1.0" encoding="utf-8"?>
<!-- Generator: Adobe Illustrator 23.0.2, SVG Export Plug-In . SVG Version: 6.00 Build 0)  -->
<svg version="1.1" id="Layer_1" xmlns="http://www.w3.org/2000/svg" xmlns:xlink="http://www.w3.org/1999/xlink" x="0px" y="0px"
	 viewBox="0 0 27 27" style="enable-background:new 0 0 27 27;" xml:space="preserve">
<style type="text/css">
	.st0{filter:url(#Adobe_OpacityMaskFilter);}
	.st1{fill-rule:evenodd;clip-rule:evenodd;fill:#FFFFFF;}
	.st2{mask:url(#mask-2_1_);fill-rule:evenodd;clip-rule:evenodd;fill:#A7FFEB;}
	.st3{opacity:0;fill:none;stroke:#212121;stroke-linecap:round;stroke-linejoin:round;}
</style>
<title>Group 8</title>
<desc>Created with Sketch.</desc>
<g id="Design">
	<g id="Pricing" transform="translate(-449.000000, -575.000000)">
		<g id="Enterprise" transform="translate(388.000000, 303.000000)">
			<g id="Group" transform="translate(0.000000, 131.000000)">
				<g transform="translate(61.000000, 141.000000)">
					<g id="Group-12">
						<g id="Group-8">
							<g id="Group-3" transform="translate(0.000000, 5.000000)">
								<g id="Clip-2">
								</g>
								<defs>
									<filter id="Adobe_OpacityMaskFilter" filterUnits="userSpaceOnUse" x="0" y="0" width="22" height="22">
										<feColorMatrix  type="matrix" values="1 0 0 0 0  0 1 0 0 0  0 0 1 0 0  0 0 0 1 0"/>
									</filter>
								</defs>
								<mask maskUnits="userSpaceOnUse" x="0" y="0" width="22" height="22" id="mask-2_1_">
									<g class="st0">
										<polygon id="path-1_1_" class="st1" points="0,0 22,0 22,22 0,22 										"/>
									</g>
								</mask>
								<path id="Fill-1" class="st2" d="M22,11c0,6.1-4.9,11-11,11C4.9,22,0,17.1,0,11C0,4.9,4.9,0,11,0C17.1,0,22,4.9,22,11"/>
							</g>
							<polyline id="Stroke-4" class="st3" points="8,14.6 11,19 26,0 							"/>
						</g>
					</g>
				</g>
			</g>
		</g>
	</g>
</g>
</svg>
