<svg xmlns="http://www.w3.org/2000/svg" fill="none" height="16" width="70"><rect fill="#fff" height="16" opacity=".1" rx="2" width="70" /><path d="M20.35 8.83V12h-1.48V3.47h3.26c.95 0 1.71.25 2.27.74.56.5.84 1.16.84 1.97 0 .84-.27 1.49-.82 1.95-.55.47-1.32.7-2.3.7h-1.77zm0-1.19h1.78c.53 0 .93-.12 1.2-.37.29-.25.42-.6.42-1.08 0-.46-.14-.82-.42-1.1a1.62 1.62 0 00-1.16-.43h-1.82v2.98zm9.37-.68a3.52 3.52 0 00-.58-.05c-.65 0-1.09.25-1.31.75V12H26.4V5.66h1.36l.04.7a1.6 1.6 0 011.43-.82c.2 0 .37.03.5.08v1.34zm3.58 5.16c-.9 0-1.64-.29-2.2-.85a3.1 3.1 0 01-.84-2.28v-.17c0-.63.12-1.2.37-1.7a2.72 2.72 0 012.5-1.58c.87 0 1.53.28 2 .83.48.55.71 1.33.71 2.34v.57H31.7c.04.52.22.94.52 1.24.3.3.7.46 1.16.46.65 0 1.18-.26 1.6-.79l.76.73c-.25.38-.6.68-1.02.89-.42.2-.9.3-1.42.3zm-.17-5.43c-.4 0-.7.13-.95.4-.24.28-.4.66-.46 1.15h2.72v-.1a1.72 1.72 0 00-.39-1.09 1.19 1.19 0 00-.92-.36zm5.16-1.03l.04.66a2.28 2.28 0 011.83-.78c.85 0 1.43.33 1.74.98.46-.65 1.11-.98 1.95-.98.7 0 1.21.2 1.55.58.35.39.52.96.53 1.71V12h-1.42V7.87c0-.4-.09-.7-.27-.88-.17-.19-.46-.28-.87-.28-.32 0-.59.09-.8.26-.2.17-.34.4-.42.68V12h-1.42V7.83c-.02-.75-.4-1.12-1.14-1.12-.57 0-.98.23-1.22.7V12h-1.42V5.66h1.34zM48.91 12h-1.43V5.66h1.43V12zM47.4 4.01c0-.22.06-.4.2-.54.14-.15.34-.22.6-.22.26 0 .46.07.6.22.14.14.2.32.2.54 0 .22-.06.4-.2.54s-.34.21-.6.21c-.26 0-.46-.07-.6-.2a.75.75 0 01-.2-.55zm6.9 7.37a2.2 2.2 0 01-1.78.74c-.68 0-1.2-.2-1.56-.6-.35-.4-.53-1-.53-1.75V5.66h1.43v4.09c0 .8.33 1.2 1 1.2.69 0 1.16-.24 1.4-.74V5.66h1.42V12h-1.34l-.04-.62zm4.17-5.72l.04.66a2.28 2.28 0 011.83-.78c.85 0 1.43.33 1.74.98.46-.65 1.11-.98 1.95-.98.7 0 1.21.2 1.55.58.35.39.52.96.53 1.71V12H64.7V7.87c0-.4-.09-.7-.27-.88-.17-.19-.46-.28-.87-.28-.32 0-.59.09-.8.26-.2.17-.34.4-.42.68V12h-1.42V7.83c-.02-.75-.4-1.12-1.14-1.12-.57 0-.98.23-1.22.7V12h-1.42V5.66h1.34z" fill="#aaa" /><path d="M1 2a1 1 0 011-1h13v14H2a1 1 0 01-1-1V2z" fill="red" /><path d="M6.52 9v3H4.76V3.47H8.1c.64 0 1.2.12 1.69.35.49.23.86.57 1.12 1 .26.43.4.92.4 1.47 0 .84-.3 1.5-.87 1.98-.57.48-1.36.72-2.37.72H6.52zm0-1.43h1.57c.46 0 .82-.1 1.06-.33.25-.22.37-.53.37-.94 0-.41-.12-.75-.37-1-.25-.27-.59-.4-1.02-.4H6.52v2.67z" fill="#fff" /></svg>