<svg xmlns="http://www.w3.org/2000/svg" viewBox="0 0 541.22278 128.21908">
                                    <defs>
                                    <mask id="how2-dline">
                                        <path class="dline-mask" d="M540.97278,30.66347s-54.2256,12.42737-69.831-8.42212,21.49-32.44959,23.84389-9.07955-47.214,41.55968-79.55839,30.893S362.02818,7.99159,292.374,24.41719c-22.60408,5.33041-63.54648-.3302-56.41475-13.77206,9.49842-17.9026,30.83508,4.21664,10.43,23.344-20.18939,18.92517-64.59222,20.11939-100.88808,2.502-119.2314-57.873-176.13586,37.72236-128.3503,91.478" style="fill: none; stroke: white; stroke-linecap: round; stroke-linejoin: round; stroke-width: 2px; stroke-dashoffset: 802.795; stroke-dasharray: 0px, 999999px;"/>
                                    </mask>
                                    </defs>
                                    <g mask="url(#how2-dline)">
                                    <path d="M540.97278,30.66347s-54.2256,12.42737-69.831-8.42212,21.49-32.44959,23.84389-9.07955-47.214,41.55968-79.55839,30.893S362.02818,7.99159,292.374,24.41719c-22.60408,5.33041-63.54648-.3302-56.41475-13.77206,9.49842-17.9026,30.83508,4.21664,10.43,23.344-20.18939,18.92517-64.59222,20.11939-100.88808,2.502-119.2314-57.873-176.13586,37.72236-128.3503,91.478" style="fill:none;stroke:#212121;stroke-linecap:round;stroke-linejoin:round;stroke-width:0.5px;stroke-dasharray:6"/>
                                    </g> 
                                    </svg>