<svg xmlns="http://www.w3.org/2000/svg" height="100%" version="1.1" viewBox="0 0 13 9" width="100%"><path d="M10,4 L11,4 L11,5 L10,5 L10,4 Z M10,7 L11,7 L11,8 L10,8 L10,7 Z M8,5 L10,5 L10,6 L8,6 L8,5 Z M7,7 L8,7 L8,8 L7,8 L7,7 Z M5,6 L6,6 L6,7 L5,7 L5,6 Z M3,5 L5,5 L5,6 L3,6 L3,5 Z M3,3 L5,3 L5,4 L3,4 L3,3 Z M5,4 L6,4 L6,5 L5,5 L5,4 Z M2,4 L3,4 L3,5 L2,5 L2,4 Z M2,6 L3,6 L3,7 L2,7 L2,6 Z M3,7 L5,7 L5,8 L3,8 L3,7 Z" fill="#000" fill-opacity="0.6471" fill-rule="evenodd" /><path d="M11,5 L11,7 L10,7 L10,6 L10,5 L11,5 M10,5 L8,5 L8,6 L8,7 L7,7 L7,2 L8,2 L8,4 L10,4 L10,5 M10,2 L11,2 L11,4 L10,4 L10,2 M3,6 L5,6 L5,7 L3,7 M3,2 L5,2 L5,3 L3,3 L3,2 Z M5,5 L6,5 L6,6 L5,6 L5,5 Z M3,4 L5,4 L5,5 L3,5 L3,4 Z M5,3 L6,3 L6,4 L5,4 L5,3 Z M2,5 L3,5 L3,6 L2,6 L2,5 Z M2,3 L3,3 L3,4 L2,4 L2,3 Z" fill="#fff" fill-rule="evenodd" /></svg>