<svg xmlns="http://www.w3.org/2000/svg" height="100%" version="1.1" viewBox="0 0 14 6" width="100%"><path d="M3,5 L4,5 L4,6 L3,6 L3,5 Z M8,1 L8,2 L6,2 L6,1 L8,1 Z M1,4 L1,3 L3,3 L3,4 L1,4 Z M0,5 L1,5 L1,6 L0,6 L0,5 Z M5,5 L8,5 L8,6 L5,6 L5,5 Z M8,4 L9,4 L9,5 L8,5 L8,4 Z" fill="#000" fill-opacity="0.6471" /><path d="M3,5 L3,4 L3,3 L1,3 L1,4 L1,5 L0,5 L0,0 L1,0 L1,2 L3,2 L3,0 L4,0 L4,5 L3,5 Z M9,4 L8,4 L8,5 L5,5 L5,0 L8,0 L8,1 L9,1 L9,4 Z M8,2 L8,1 L6,1 L6,2 L6,4 L8,4 L8,2 Z" fill="#fff" /><path d="M13,2 L14,2 L14,3 L13,3 L13,2 Z M13,5 L14,5 L14,6 L13,6 L13,5 Z M11,3 L13,3 L13,4 L11,4 L11,3 Z M10,5 L11,5 L11,6 L10,6 L10,5 Z M11,1 L13,1 L13,2 L11,2 L11,1 Z" fill="#000" fill-opacity="0.6471" /><path d="M14,3 L14,5 L13,5 L13,4 L13,3 L14,3 Z M11,0 L13,0 L13,1 L11,1 L11,2 L13,2 L13,3 L11,3 L11,4 L11,5 L10,5 L10,0 L11,0 Z M13,0 L14,0 L14,2 L13,2 L13,0 Z" fill="#fff" /></svg>