<svg xmlns="http://www.w3.org/2000/svg" xmlns:xlink="http://www.w3.org/1999/xlink" height="100%" version="1.1" viewBox="0 0 36 36" width="100%"><use stroke="#000" stroke-opacity=".15" stroke-width="2px" xlink:href="#ytp-svg-mix" /><path d="M25.65,18 C25.63,20.31 24.78,22.41 23.4,24.06 L24.3,25 C25.99,23.20 27,20.73 27,18 C27,15.27 25.99,12.79 24.3,11 L23.4,11.93 C24.78,13.58 25.63,15.68 25.65,18 Z M10.35,18 C10.36,15.68 11.21,13.58 12.6,11.93 L11.7,11 C10.00,12.79 9,15.27 9,18 C9,20.73 10.00,23.20 11.7,25 L12.6,24.06 C11.21,22.41 10.36,20.31 10.35,18 Z M13.05,18 C13.01,16.27 13.54,14.91 14.4,13.8 L13.5,12.86 C12.37,14.12 11.7,15.85 11.7,18 C11.7,19.67 12.37,21.40 13.5,22.66 L14.4,21.73 C13.54,20.61 13.01,19.26 13.05,18 Z M22.05,12.86 L21.15,13.8 C22.00,14.91 22.53,16.27 22.5,18 C22.53,19.26 22.00,20.61 21.15,21.73 L22.05,22.66 C23.17,21.40 23.85,19.67 23.85,18 C23.85,15.85 23.17,14.12 22.05,12.86 Z M16.5,15.66 L20.1,17.53 L16.5,19.86 L16.5,15.66 Z" fill="#fff" id="ytp-svg-mix" /></svg>