<svg xmlns="http://www.w3.org/2000/svg" viewBox="0 0 398.93021 183.53439">
                            <defs>
                            <mask id="home-api-dline1">
                                <path class="dline-mask" d="M102.85586,11.06907C4.62428-6.139-24.69263,79.87492,21.916,119.90309c27.447,36.19967,86.28518,40.4219,107.21523,25.78555,21.15365-14.79274,4.56787-37.80254-6.46125-22.69581-8.281,11.34264,28.37755,21.89269,49.72744,19.99283,65.78942-5.85437,81.68708,20.11234,109.83345,34.106s75.818,3.8889,76.73791-17.76966-34.49191-15.935-22.975,5.16193S398.68021,181.352,398.68021,181.352" style="fill:none;stroke:white;stroke-linecap:round;stroke-linejoin:round;stroke-width:2px;"/>
                            </mask>
                            </defs>
                            <g mask="url(#home-api-dline1)">
                            <path d="M102.85586,11.06907C4.62428-6.139-24.69263,79.87492,21.916,119.90309c27.447,36.19967,86.28518,40.4219,107.21523,25.78555,21.15365-14.79274,4.56787-37.80254-6.46125-22.69581-8.281,11.34264,28.37755,21.89269,49.72744,19.99283,65.78942-5.85437,81.68708,20.11234,109.83345,34.106s75.818,3.8889,76.73791-17.76966-34.49191-15.935-22.975,5.16193S398.68021,181.352,398.68021,181.352" style="fill:none;stroke:#212121;stroke-linecap:round;stroke-linejoin:round;stroke-width:0.5px;stroke-dasharray:6"/>
                            </g> 
                            </svg>