<?xml version="1.0" encoding="UTF-8"?>
<svg width="34px" height="32px" viewBox="0 0 34 32" version="1.1" xmlns="http://www.w3.org/2000/svg" xmlns:xlink="http://www.w3.org/1999/xlink">
    <!-- Generator: Sketch 53.2 (72643) - https://sketchapp.com -->
    <title>Group 7</title>
    <desc>Created with Sketch.</desc>
    <g id="Design" stroke="none" stroke-width="1" fill="none" fill-rule="evenodd">
        <g id="Blog-Detail" transform="translate(-311.000000, -957.000000)">
            <g id="Social" transform="translate(301.000000, 946.000000)">
                <g id="Group-13">
                    <g id="Group-7" transform="translate(10.000000, 12.000000)">
                        <path d="M9.9871,3.9784 C8.0501,3.9784 6.1221,4.7444 4.6531,6.2814 C1.7161,9.3554 1.7071,14.2904 4.6411,17.3674 L16.3951,29.6934 C16.6791,29.9944 17.2201,29.9944 17.5051,29.6934 C21.4251,25.5904 25.3381,21.4824 29.2581,17.3784 C32.1971,14.3044 32.1971,9.3674 29.2581,6.2934 C26.3211,3.2184 21.5171,3.2184 18.5791,6.2934 L16.9561,7.9764 L15.3341,6.2814 C13.7501,4.6174 11.7871,3.9704 9.9871,3.9784" id="Fill-1" fill="#FF9792"></path>
                        <path d="M9.0535,0.4999 C6.8555,0.4999 4.6695,1.3689 3.0035,3.1119 C-0.3275,6.5989 -0.3375,12.1949 2.9915,15.6839 L16.3205,29.6639 C16.6435,30.0049 17.2565,30.0049 17.5785,29.6639 C22.0265,25.0099 26.4625,20.3509 30.9085,15.6979 C34.2405,12.2109 34.2405,6.6119 30.9085,3.1249 C27.5765,-0.3611 22.1285,-0.3611 18.7965,3.1249 L16.9565,5.0339 L15.1155,3.1119 C13.3205,1.2249 11.0945,0.4909 9.0535,0.4999 Z" id="Stroke-3" stroke="#212121" stroke-linecap="round" stroke-linejoin="round"></path>
                        <path d="M15.116,3.1122 L19.912,8.1142" id="Stroke-5" stroke="#212121" stroke-linecap="round" stroke-linejoin="round"></path>
                    </g>
                </g>
            </g>
        </g>
    </g>
</svg>